<mxfile host="app.diagrams.net" modified="2021-09-11T18:46:54.693Z" agent="5.0 (Windows NT 10.0; Win64; x64) AppleWebKit/537.36 (KHTML, like Gecko) Chrome/92.0.4515.159 Safari/537.36 OPR/78.0.4093.184" etag="e3ijHfdB824_J86OmXdP" version="15.1.4" type="github">
  <diagram id="YGRb14ayEF1kDPeHTtl0" name="Page-1">
    <mxGraphModel dx="1183" dy="704" grid="1" gridSize="10" guides="1" tooltips="1" connect="1" arrows="1" fold="1" page="1" pageScale="1" pageWidth="850" pageHeight="1100" math="0" shadow="0">
      <root>
        <mxCell id="0" />
        <mxCell id="1" parent="0" />
        <mxCell id="ppUznr6c5s3xYXmo9qjN-1" value="MAHASISWA" style="rounded=0;whiteSpace=wrap;html=1;fillColor=#0050ef;strokeColor=#001DBC;fontColor=#ffffff;" vertex="1" parent="1">
          <mxGeometry x="192.07999999999996" y="390" width="120" height="60" as="geometry" />
        </mxCell>
        <mxCell id="ppUznr6c5s3xYXmo9qjN-2" value="MATA KULIAH" style="rounded=0;whiteSpace=wrap;html=1;fillColor=#0050ef;strokeColor=#001DBC;fontColor=#ffffff;" vertex="1" parent="1">
          <mxGeometry x="355" y="260" width="120" height="60" as="geometry" />
        </mxCell>
        <mxCell id="ppUznr6c5s3xYXmo9qjN-4" value="SEMESTER 3" style="ellipse;whiteSpace=wrap;html=1;fontSize=8;strokeColor=#BD7000;fontColor=#007FFF;fillColor=#F0C537;" vertex="1" parent="1">
          <mxGeometry x="272.08" y="85" width="60" height="40" as="geometry" />
        </mxCell>
        <mxCell id="ppUznr6c5s3xYXmo9qjN-5" value="SEMESTER 4" style="ellipse;whiteSpace=wrap;html=1;fontSize=8;strokeColor=#BD7000;fontColor=#007FFF;fillColor=#F0C537;" vertex="1" parent="1">
          <mxGeometry x="345" y="55" width="60" height="40" as="geometry" />
        </mxCell>
        <mxCell id="ppUznr6c5s3xYXmo9qjN-6" value="SEMESTER 5" style="ellipse;whiteSpace=wrap;html=1;fontSize=8;strokeColor=#BD7000;fontColor=#007FFF;fillColor=#F0C537;" vertex="1" parent="1">
          <mxGeometry x="440" y="55" width="60" height="40" as="geometry" />
        </mxCell>
        <mxCell id="ppUznr6c5s3xYXmo9qjN-7" value="SEMESTER 6" style="ellipse;whiteSpace=wrap;html=1;fontSize=8;strokeColor=#BD7000;fontColor=#007FFF;fillColor=#F0C537;" vertex="1" parent="1">
          <mxGeometry x="507.08000000000004" y="90" width="60" height="40" as="geometry" />
        </mxCell>
        <mxCell id="ppUznr6c5s3xYXmo9qjN-8" value="SEMESTER 7" style="ellipse;whiteSpace=wrap;html=1;fontSize=8;strokeColor=#BD7000;fontColor=#007FFF;fillColor=#F0C537;" vertex="1" parent="1">
          <mxGeometry x="520" y="150" width="60" height="40" as="geometry" />
        </mxCell>
        <mxCell id="ppUznr6c5s3xYXmo9qjN-9" value="SEMESTER 2" style="ellipse;whiteSpace=wrap;html=1;fontSize=8;strokeColor=#BD7000;fontColor=#007FFF;fillColor=#F0C537;" vertex="1" parent="1">
          <mxGeometry x="225" y="140" width="60" height="40" as="geometry" />
        </mxCell>
        <mxCell id="ppUznr6c5s3xYXmo9qjN-10" value="SEMESTER 1" style="ellipse;whiteSpace=wrap;html=1;fontSize=8;strokeColor=#BD7000;fontColor=#007FFF;fillColor=#F0C537;" vertex="1" parent="1">
          <mxGeometry x="235.42000000000002" y="200" width="60" height="40" as="geometry" />
        </mxCell>
        <mxCell id="ppUznr6c5s3xYXmo9qjN-11" value="SEMESTER 8" style="ellipse;whiteSpace=wrap;html=1;fontSize=8;strokeColor=#BD7000;fontColor=#007FFF;fillColor=#F0C537;" vertex="1" parent="1">
          <mxGeometry x="522.92" y="210" width="60" height="40" as="geometry" />
        </mxCell>
        <mxCell id="ppUznr6c5s3xYXmo9qjN-12" value="&lt;font style=&quot;font-size: 6px&quot;&gt;Mata kuliah Wajib&lt;/font&gt;" style="ellipse;whiteSpace=wrap;html=1;fontSize=8;fillColor=#f5f5f5;strokeColor=#666666;fontColor=#333333;" vertex="1" parent="1">
          <mxGeometry x="172.08" y="170" width="40" height="30" as="geometry" />
        </mxCell>
        <mxCell id="ppUznr6c5s3xYXmo9qjN-13" value="&lt;font style=&quot;font-size: 6px&quot;&gt;Mata kuliah Wajib&lt;/font&gt;" style="ellipse;whiteSpace=wrap;html=1;fontSize=8;fillColor=#f5f5f5;strokeColor=#666666;fontColor=#333333;" vertex="1" parent="1">
          <mxGeometry x="165.41" y="90" width="40" height="30" as="geometry" />
        </mxCell>
        <mxCell id="ppUznr6c5s3xYXmo9qjN-15" value="&lt;font style=&quot;font-size: 6px&quot;&gt;Mata kuliah Wajib&lt;/font&gt;" style="ellipse;whiteSpace=wrap;html=1;fontSize=8;fillColor=#f5f5f5;strokeColor=#666666;fontColor=#333333;" vertex="1" parent="1">
          <mxGeometry x="235.42" y="45" width="40" height="30" as="geometry" />
        </mxCell>
        <mxCell id="ppUznr6c5s3xYXmo9qjN-16" value="&lt;font style=&quot;font-size: 6px&quot;&gt;Mata kuliah Wajib&lt;/font&gt;" style="ellipse;whiteSpace=wrap;html=1;fontSize=8;fillColor=#f5f5f5;strokeColor=#666666;fontColor=#333333;" vertex="1" parent="1">
          <mxGeometry x="323.33" y="15" width="40" height="30" as="geometry" />
        </mxCell>
        <mxCell id="ppUznr6c5s3xYXmo9qjN-17" value="&lt;font style=&quot;font-size: 5px;&quot;&gt;Mata kuliah Wajib&lt;/font&gt;" style="ellipse;whiteSpace=wrap;html=1;fontSize=5;fillColor=#f5f5f5;strokeColor=#666666;fontColor=#333333;" vertex="1" parent="1">
          <mxGeometry x="420" y="15" width="35" height="20" as="geometry" />
        </mxCell>
        <mxCell id="ppUznr6c5s3xYXmo9qjN-25" value="&lt;font style=&quot;font-size: 5px;&quot;&gt;Mata kuliah Pilihan&lt;/font&gt;" style="ellipse;whiteSpace=wrap;html=1;fontSize=5;fillColor=#f5f5f5;strokeColor=#666666;fontColor=#333333;" vertex="1" parent="1">
          <mxGeometry x="475" y="15" width="36.67" height="20" as="geometry" />
        </mxCell>
        <mxCell id="ppUznr6c5s3xYXmo9qjN-28" value="&lt;font style=&quot;font-size: 5px;&quot;&gt;Mata kuliah Wajib&lt;/font&gt;" style="ellipse;whiteSpace=wrap;html=1;fontSize=5;fillColor=#f5f5f5;strokeColor=#666666;fontColor=#333333;" vertex="1" parent="1">
          <mxGeometry x="535.42" y="35" width="35" height="20" as="geometry" />
        </mxCell>
        <mxCell id="ppUznr6c5s3xYXmo9qjN-29" value="&lt;font style=&quot;font-size: 5px;&quot;&gt;Mata kuliah Pilihan&lt;/font&gt;" style="ellipse;whiteSpace=wrap;html=1;fontSize=5;fillColor=#f5f5f5;strokeColor=#666666;fontColor=#333333;" vertex="1" parent="1">
          <mxGeometry x="578.33" y="65" width="36.67" height="20" as="geometry" />
        </mxCell>
        <mxCell id="ppUznr6c5s3xYXmo9qjN-34" value="" style="endArrow=none;html=1;fontSize=8;entryX=0.5;entryY=0;entryDx=0;entryDy=0;exitX=0.5;exitY=1;exitDx=0;exitDy=0;" edge="1" parent="1" source="ppUznr6c5s3xYXmo9qjN-10" target="ppUznr6c5s3xYXmo9qjN-2">
          <mxGeometry width="50" height="50" relative="1" as="geometry">
            <mxPoint x="360" y="320" as="sourcePoint" />
            <mxPoint x="410" y="270" as="targetPoint" />
          </mxGeometry>
        </mxCell>
        <mxCell id="ppUznr6c5s3xYXmo9qjN-36" value="" style="endArrow=none;html=1;fontSize=8;entryX=0.5;entryY=0;entryDx=0;entryDy=0;exitX=0.5;exitY=1;exitDx=0;exitDy=0;" edge="1" parent="1" source="ppUznr6c5s3xYXmo9qjN-11" target="ppUznr6c5s3xYXmo9qjN-2">
          <mxGeometry width="50" height="50" relative="1" as="geometry">
            <mxPoint x="55" y="245" as="sourcePoint" />
            <mxPoint x="324.9999999999998" y="335" as="targetPoint" />
          </mxGeometry>
        </mxCell>
        <mxCell id="ppUznr6c5s3xYXmo9qjN-37" value="" style="endArrow=none;html=1;fontSize=8;exitX=0.5;exitY=1;exitDx=0;exitDy=0;" edge="1" parent="1" source="ppUznr6c5s3xYXmo9qjN-8">
          <mxGeometry width="50" height="50" relative="1" as="geometry">
            <mxPoint x="65" y="255" as="sourcePoint" />
            <mxPoint x="420" y="260" as="targetPoint" />
          </mxGeometry>
        </mxCell>
        <mxCell id="ppUznr6c5s3xYXmo9qjN-38" value="" style="endArrow=none;html=1;fontSize=8;entryX=0.5;entryY=0;entryDx=0;entryDy=0;exitX=0.225;exitY=0.929;exitDx=0;exitDy=0;exitPerimeter=0;" edge="1" parent="1" source="ppUznr6c5s3xYXmo9qjN-7" target="ppUznr6c5s3xYXmo9qjN-2">
          <mxGeometry width="50" height="50" relative="1" as="geometry">
            <mxPoint x="75" y="265" as="sourcePoint" />
            <mxPoint x="344.9999999999998" y="355" as="targetPoint" />
          </mxGeometry>
        </mxCell>
        <mxCell id="ppUznr6c5s3xYXmo9qjN-39" value="" style="endArrow=none;html=1;fontSize=8;entryX=0.5;entryY=0;entryDx=0;entryDy=0;exitX=0.5;exitY=1;exitDx=0;exitDy=0;" edge="1" parent="1" source="ppUznr6c5s3xYXmo9qjN-6" target="ppUznr6c5s3xYXmo9qjN-2">
          <mxGeometry width="50" height="50" relative="1" as="geometry">
            <mxPoint x="85" y="275" as="sourcePoint" />
            <mxPoint x="354.9999999999998" y="365" as="targetPoint" />
          </mxGeometry>
        </mxCell>
        <mxCell id="ppUznr6c5s3xYXmo9qjN-40" value="" style="endArrow=none;html=1;fontSize=8;entryX=0.5;entryY=0;entryDx=0;entryDy=0;exitX=0.5;exitY=1;exitDx=0;exitDy=0;" edge="1" parent="1" source="ppUznr6c5s3xYXmo9qjN-5" target="ppUznr6c5s3xYXmo9qjN-2">
          <mxGeometry width="50" height="50" relative="1" as="geometry">
            <mxPoint x="95" y="285" as="sourcePoint" />
            <mxPoint x="364.9999999999998" y="375" as="targetPoint" />
          </mxGeometry>
        </mxCell>
        <mxCell id="ppUznr6c5s3xYXmo9qjN-41" value="" style="endArrow=none;html=1;fontSize=8;entryX=0.5;entryY=0;entryDx=0;entryDy=0;exitX=0.5;exitY=1;exitDx=0;exitDy=0;" edge="1" parent="1" source="ppUznr6c5s3xYXmo9qjN-4" target="ppUznr6c5s3xYXmo9qjN-2">
          <mxGeometry width="50" height="50" relative="1" as="geometry">
            <mxPoint x="105" y="295" as="sourcePoint" />
            <mxPoint x="374.9999999999998" y="385" as="targetPoint" />
          </mxGeometry>
        </mxCell>
        <mxCell id="ppUznr6c5s3xYXmo9qjN-42" value="" style="endArrow=none;html=1;fontSize=8;entryX=0.5;entryY=0;entryDx=0;entryDy=0;exitX=0.5;exitY=1;exitDx=0;exitDy=0;" edge="1" parent="1" source="ppUznr6c5s3xYXmo9qjN-9" target="ppUznr6c5s3xYXmo9qjN-2">
          <mxGeometry width="50" height="50" relative="1" as="geometry">
            <mxPoint x="115" y="305" as="sourcePoint" />
            <mxPoint x="384.9999999999998" y="395" as="targetPoint" />
          </mxGeometry>
        </mxCell>
        <mxCell id="ppUznr6c5s3xYXmo9qjN-43" value="" style="endArrow=none;html=1;fontSize=8;exitX=0.053;exitY=0.706;exitDx=0;exitDy=0;exitPerimeter=0;entryX=1;entryY=0;entryDx=0;entryDy=0;" edge="1" parent="1" source="ppUznr6c5s3xYXmo9qjN-29" target="ppUznr6c5s3xYXmo9qjN-7">
          <mxGeometry width="50" height="50" relative="1" as="geometry">
            <mxPoint x="155" y="180" as="sourcePoint" />
            <mxPoint x="537" y="90" as="targetPoint" />
          </mxGeometry>
        </mxCell>
        <mxCell id="ppUznr6c5s3xYXmo9qjN-44" value="" style="endArrow=none;html=1;fontSize=8;entryX=0.5;entryY=1;entryDx=0;entryDy=0;exitX=0.028;exitY=0.308;exitDx=0;exitDy=0;exitPerimeter=0;" edge="1" parent="1" source="ppUznr6c5s3xYXmo9qjN-9" target="ppUznr6c5s3xYXmo9qjN-13">
          <mxGeometry width="50" height="50" relative="1" as="geometry">
            <mxPoint x="165" y="190" as="sourcePoint" />
            <mxPoint x="434.9999999999998" y="280" as="targetPoint" />
          </mxGeometry>
        </mxCell>
        <mxCell id="ppUznr6c5s3xYXmo9qjN-45" value="" style="endArrow=none;html=1;fontSize=8;entryX=0;entryY=0.5;entryDx=0;entryDy=0;exitX=0.5;exitY=1;exitDx=0;exitDy=0;" edge="1" parent="1" source="ppUznr6c5s3xYXmo9qjN-12" target="ppUznr6c5s3xYXmo9qjN-10">
          <mxGeometry width="50" height="50" relative="1" as="geometry">
            <mxPoint x="295.42" y="270" as="sourcePoint" />
            <mxPoint x="565.4199999999997" y="360" as="targetPoint" />
          </mxGeometry>
        </mxCell>
        <mxCell id="ppUznr6c5s3xYXmo9qjN-46" value="" style="endArrow=none;html=1;fontSize=8;entryX=0.5;entryY=1;entryDx=0;entryDy=0;exitX=0.5;exitY=0;exitDx=0;exitDy=0;" edge="1" parent="1" source="ppUznr6c5s3xYXmo9qjN-7" target="ppUznr6c5s3xYXmo9qjN-28">
          <mxGeometry width="50" height="50" relative="1" as="geometry">
            <mxPoint x="165" y="190" as="sourcePoint" />
            <mxPoint x="434.9999999999998" y="280" as="targetPoint" />
          </mxGeometry>
        </mxCell>
        <mxCell id="ppUznr6c5s3xYXmo9qjN-47" value="" style="endArrow=none;html=1;fontSize=8;entryX=0.5;entryY=1;entryDx=0;entryDy=0;exitX=0.65;exitY=-0.017;exitDx=0;exitDy=0;exitPerimeter=0;" edge="1" parent="1" source="ppUznr6c5s3xYXmo9qjN-6" target="ppUznr6c5s3xYXmo9qjN-25">
          <mxGeometry width="50" height="50" relative="1" as="geometry">
            <mxPoint x="175" y="200" as="sourcePoint" />
            <mxPoint x="444.9999999999998" y="290" as="targetPoint" />
          </mxGeometry>
        </mxCell>
        <mxCell id="ppUznr6c5s3xYXmo9qjN-48" value="" style="endArrow=none;html=1;fontSize=8;entryX=0.5;entryY=1;entryDx=0;entryDy=0;exitX=0.333;exitY=0.017;exitDx=0;exitDy=0;exitPerimeter=0;" edge="1" parent="1" source="ppUznr6c5s3xYXmo9qjN-6" target="ppUznr6c5s3xYXmo9qjN-17">
          <mxGeometry width="50" height="50" relative="1" as="geometry">
            <mxPoint x="185" y="210" as="sourcePoint" />
            <mxPoint x="454.9999999999998" y="300" as="targetPoint" />
          </mxGeometry>
        </mxCell>
        <mxCell id="ppUznr6c5s3xYXmo9qjN-49" value="" style="endArrow=none;html=1;fontSize=8;entryX=0.758;entryY=0.922;entryDx=0;entryDy=0;entryPerimeter=0;exitX=0.25;exitY=0.067;exitDx=0;exitDy=0;exitPerimeter=0;" edge="1" parent="1" source="ppUznr6c5s3xYXmo9qjN-5" target="ppUznr6c5s3xYXmo9qjN-16">
          <mxGeometry width="50" height="50" relative="1" as="geometry">
            <mxPoint x="369" y="54" as="sourcePoint" />
            <mxPoint x="464.9999999999998" y="310" as="targetPoint" />
          </mxGeometry>
        </mxCell>
        <mxCell id="ppUznr6c5s3xYXmo9qjN-50" value="" style="endArrow=none;html=1;fontSize=8;exitX=0;exitY=0;exitDx=0;exitDy=0;entryX=0.77;entryY=0.96;entryDx=0;entryDy=0;entryPerimeter=0;" edge="1" parent="1" source="ppUznr6c5s3xYXmo9qjN-4" target="ppUznr6c5s3xYXmo9qjN-15">
          <mxGeometry width="50" height="50" relative="1" as="geometry">
            <mxPoint x="205" y="230" as="sourcePoint" />
            <mxPoint x="269" y="91" as="targetPoint" />
          </mxGeometry>
        </mxCell>
        <mxCell id="ppUznr6c5s3xYXmo9qjN-51" value="&lt;font style=&quot;font-size: 5px;&quot;&gt;Mata kuliah Wajib&lt;/font&gt;" style="ellipse;whiteSpace=wrap;html=1;fontSize=5;fillColor=#f5f5f5;strokeColor=#666666;fontColor=#333333;" vertex="1" parent="1">
          <mxGeometry x="615" y="100" width="35" height="20" as="geometry" />
        </mxCell>
        <mxCell id="ppUznr6c5s3xYXmo9qjN-52" value="&lt;font style=&quot;font-size: 5px;&quot;&gt;Mata kuliah Pilihan&lt;/font&gt;" style="ellipse;whiteSpace=wrap;html=1;fontSize=5;fillColor=#f5f5f5;strokeColor=#666666;fontColor=#333333;" vertex="1" parent="1">
          <mxGeometry x="640" y="140" width="36.67" height="20" as="geometry" />
        </mxCell>
        <mxCell id="ppUznr6c5s3xYXmo9qjN-53" value="&lt;font style=&quot;font-size: 5px;&quot;&gt;Mata kuliah Wajib&lt;/font&gt;" style="ellipse;whiteSpace=wrap;html=1;fontSize=5;fillColor=#f5f5f5;strokeColor=#666666;fontColor=#333333;" vertex="1" parent="1">
          <mxGeometry x="649.9999999999999" y="180" width="35" height="20" as="geometry" />
        </mxCell>
        <mxCell id="ppUznr6c5s3xYXmo9qjN-54" value="&lt;font style=&quot;font-size: 5px;&quot;&gt;Mata kuliah Pilihan&lt;/font&gt;" style="ellipse;whiteSpace=wrap;html=1;fontSize=5;fillColor=#f5f5f5;strokeColor=#666666;fontColor=#333333;" vertex="1" parent="1">
          <mxGeometry x="663.75" y="220" width="36.67" height="20" as="geometry" />
        </mxCell>
        <mxCell id="ppUznr6c5s3xYXmo9qjN-55" value="" style="endArrow=none;html=1;fontSize=8;exitX=-0.008;exitY=0.636;exitDx=0;exitDy=0;entryX=0.954;entryY=0.68;entryDx=0;entryDy=0;exitPerimeter=0;entryPerimeter=0;" edge="1" parent="1" source="ppUznr6c5s3xYXmo9qjN-54" target="ppUznr6c5s3xYXmo9qjN-11">
          <mxGeometry width="50" height="50" relative="1" as="geometry">
            <mxPoint x="312.91999999999996" y="180" as="sourcePoint" />
            <mxPoint x="590" y="240" as="targetPoint" />
          </mxGeometry>
        </mxCell>
        <mxCell id="ppUznr6c5s3xYXmo9qjN-56" value="" style="endArrow=none;html=1;fontSize=8;entryX=0.071;entryY=0.789;entryDx=0;entryDy=0;exitX=0.906;exitY=0.214;exitDx=0;exitDy=0;entryPerimeter=0;exitPerimeter=0;" edge="1" parent="1" target="ppUznr6c5s3xYXmo9qjN-53" source="ppUznr6c5s3xYXmo9qjN-11">
          <mxGeometry width="50" height="50" relative="1" as="geometry">
            <mxPoint x="610" y="220" as="sourcePoint" />
            <mxPoint x="592.9199999999997" y="280" as="targetPoint" />
          </mxGeometry>
        </mxCell>
        <mxCell id="ppUznr6c5s3xYXmo9qjN-57" value="" style="endArrow=none;html=1;fontSize=8;entryX=0.03;entryY=0.719;entryDx=0;entryDy=0;entryPerimeter=0;exitX=1;exitY=0.582;exitDx=0;exitDy=0;exitPerimeter=0;" edge="1" parent="1" target="ppUznr6c5s3xYXmo9qjN-52" source="ppUznr6c5s3xYXmo9qjN-8">
          <mxGeometry width="50" height="50" relative="1" as="geometry">
            <mxPoint x="600" y="180" as="sourcePoint" />
            <mxPoint x="602.9199999999997" y="290" as="targetPoint" />
          </mxGeometry>
        </mxCell>
        <mxCell id="ppUznr6c5s3xYXmo9qjN-58" value="" style="endArrow=none;html=1;fontSize=8;exitX=0.824;exitY=0.11;exitDx=0;exitDy=0;exitPerimeter=0;entryX=0.048;entryY=0.844;entryDx=0;entryDy=0;entryPerimeter=0;" edge="1" parent="1" target="ppUznr6c5s3xYXmo9qjN-51" source="ppUznr6c5s3xYXmo9qjN-8">
          <mxGeometry width="50" height="50" relative="1" as="geometry">
            <mxPoint x="622.9199999999997" y="130" as="sourcePoint" />
            <mxPoint x="617" y="140" as="targetPoint" />
          </mxGeometry>
        </mxCell>
        <mxCell id="ppUznr6c5s3xYXmo9qjN-62" value="Mempelajari" style="rhombus;whiteSpace=wrap;html=1;fontSize=8;fillColor=#dae8fc;strokeColor=#6c8ebf;" vertex="1" parent="1">
          <mxGeometry x="117.07999999999998" y="260" width="80" height="50" as="geometry" />
        </mxCell>
        <mxCell id="ppUznr6c5s3xYXmo9qjN-63" value="" style="endArrow=none;html=1;fontSize=8;exitX=0.5;exitY=1;exitDx=0;exitDy=0;" edge="1" parent="1" source="ppUznr6c5s3xYXmo9qjN-62">
          <mxGeometry width="50" height="50" relative="1" as="geometry">
            <mxPoint x="102.07999999999998" y="230" as="sourcePoint" />
            <mxPoint x="112.07999999999998" y="320" as="targetPoint" />
          </mxGeometry>
        </mxCell>
        <mxCell id="ppUznr6c5s3xYXmo9qjN-64" value="" style="endArrow=none;html=1;fontSize=8;entryX=0.443;entryY=0.998;entryDx=0;entryDy=0;entryPerimeter=0;" edge="1" parent="1">
          <mxGeometry width="50" height="50" relative="1" as="geometry">
            <mxPoint x="157.07999999999998" y="260" as="sourcePoint" />
            <mxPoint x="129.3949999999998" y="249.38" as="targetPoint" />
          </mxGeometry>
        </mxCell>
        <mxCell id="ppUznr6c5s3xYXmo9qjN-67" value="NAMA" style="ellipse;whiteSpace=wrap;html=1;fontSize=8;strokeColor=#BD7000;fontColor=#007FFF;fillColor=#F0C537;" vertex="1" parent="1">
          <mxGeometry x="52.08000000000001" y="430" width="60" height="40" as="geometry" />
        </mxCell>
        <mxCell id="ppUznr6c5s3xYXmo9qjN-68" value="NIM" style="ellipse;whiteSpace=wrap;html=1;fontSize=8;strokeColor=#BD7000;fontColor=#007FFF;fillColor=#F0C537;" vertex="1" parent="1">
          <mxGeometry x="112.08000000000001" y="470" width="60" height="40" as="geometry" />
        </mxCell>
        <mxCell id="ppUznr6c5s3xYXmo9qjN-69" value="KELAS" style="ellipse;whiteSpace=wrap;html=1;fontSize=8;strokeColor=#BD7000;fontColor=#007FFF;fillColor=#F0C537;" vertex="1" parent="1">
          <mxGeometry x="182.08" y="480" width="60" height="40" as="geometry" />
        </mxCell>
        <mxCell id="ppUznr6c5s3xYXmo9qjN-70" value="ALAMAT" style="ellipse;whiteSpace=wrap;html=1;fontSize=8;strokeColor=#BD7000;fontColor=#007FFF;fillColor=#F0C537;" vertex="1" parent="1">
          <mxGeometry x="252.08" y="480" width="60" height="40" as="geometry" />
        </mxCell>
        <mxCell id="ppUznr6c5s3xYXmo9qjN-71" value="" style="ellipse;whiteSpace=wrap;html=1;fontSize=8;strokeColor=#BD7000;fontColor=#007FFF;fillColor=#F0C537;" vertex="1" parent="1">
          <mxGeometry x="323.33000000000004" y="470" width="60" height="40" as="geometry" />
        </mxCell>
        <mxCell id="ppUznr6c5s3xYXmo9qjN-72" value="UMUR" style="ellipse;whiteSpace=wrap;html=1;fontSize=8;strokeColor=#BD7000;fontColor=#007FFF;fillColor=#F0C537;dashed=1;" vertex="1" parent="1">
          <mxGeometry x="395" y="440" width="60" height="40" as="geometry" />
        </mxCell>
        <mxCell id="ppUznr6c5s3xYXmo9qjN-73" value="NO. TELEPON" style="ellipse;whiteSpace=wrap;html=1;fontSize=8;strokeColor=#BD7000;fontColor=#007FFF;fillColor=#F0C537;" vertex="1" parent="1">
          <mxGeometry x="327.08000000000004" y="472.5" width="52.5" height="35" as="geometry" />
        </mxCell>
        <mxCell id="ppUznr6c5s3xYXmo9qjN-74" value="&lt;font style=&quot;font-size: 5px&quot;&gt;Nomor Rumah&lt;/font&gt;" style="ellipse;whiteSpace=wrap;html=1;fontSize=5;fillColor=#f5f5f5;strokeColor=#666666;fontColor=#333333;" vertex="1" parent="1">
          <mxGeometry x="194.58" y="530" width="35" height="20" as="geometry" />
        </mxCell>
        <mxCell id="ppUznr6c5s3xYXmo9qjN-77" value="" style="endArrow=none;html=1;fontSize=8;entryX=0.5;entryY=0;entryDx=0;entryDy=0;exitX=0.5;exitY=1;exitDx=0;exitDy=0;" edge="1" parent="1" target="ppUznr6c5s3xYXmo9qjN-74" source="ppUznr6c5s3xYXmo9qjN-70">
          <mxGeometry width="50" height="50" relative="1" as="geometry">
            <mxPoint x="286.65999999999997" y="625" as="sourcePoint" />
            <mxPoint x="276.65999999999974" y="795" as="targetPoint" />
          </mxGeometry>
        </mxCell>
        <mxCell id="ppUznr6c5s3xYXmo9qjN-78" value="Kode Pos" style="ellipse;whiteSpace=wrap;html=1;fontSize=5;fillColor=#f5f5f5;strokeColor=#666666;fontColor=#333333;" vertex="1" parent="1">
          <mxGeometry x="327.0799999999999" y="550" width="36.67" height="20" as="geometry" />
        </mxCell>
        <mxCell id="ppUznr6c5s3xYXmo9qjN-75" value="Kelurahan" style="ellipse;whiteSpace=wrap;html=1;fontSize=5;fillColor=#f5f5f5;strokeColor=#666666;fontColor=#333333;" vertex="1" parent="1">
          <mxGeometry x="205.41" y="560" width="36.67" height="20" as="geometry" />
        </mxCell>
        <mxCell id="ppUznr6c5s3xYXmo9qjN-79" value="" style="endArrow=none;html=1;fontSize=8;exitX=0.5;exitY=1;exitDx=0;exitDy=0;" edge="1" parent="1" source="ppUznr6c5s3xYXmo9qjN-70" target="ppUznr6c5s3xYXmo9qjN-75">
          <mxGeometry width="50" height="50" relative="1" as="geometry">
            <mxPoint x="282.08000000000004" y="520" as="sourcePoint" />
            <mxPoint x="305.08000000000004" y="560" as="targetPoint" />
          </mxGeometry>
        </mxCell>
        <mxCell id="ppUznr6c5s3xYXmo9qjN-80" value="" style="endArrow=none;html=1;fontSize=8;exitX=0.5;exitY=1;exitDx=0;exitDy=0;entryX=0.5;entryY=0;entryDx=0;entryDy=0;" edge="1" parent="1" source="ppUznr6c5s3xYXmo9qjN-70" target="ppUznr6c5s3xYXmo9qjN-78">
          <mxGeometry width="50" height="50" relative="1" as="geometry">
            <mxPoint x="292.08000000000004" y="530" as="sourcePoint" />
            <mxPoint x="293.30068607312853" y="550.0029366453915" as="targetPoint" />
          </mxGeometry>
        </mxCell>
        <mxCell id="ppUznr6c5s3xYXmo9qjN-81" value="Kecamatan" style="ellipse;whiteSpace=wrap;html=1;fontSize=5;fillColor=#f5f5f5;strokeColor=#666666;fontColor=#333333;" vertex="1" parent="1">
          <mxGeometry x="247.08" y="570" width="36.67" height="20" as="geometry" />
        </mxCell>
        <mxCell id="ppUznr6c5s3xYXmo9qjN-82" value="Kabupaten" style="ellipse;whiteSpace=wrap;html=1;fontSize=5;fillColor=#f5f5f5;strokeColor=#666666;fontColor=#333333;" vertex="1" parent="1">
          <mxGeometry x="295.40999999999997" y="570" width="36.67" height="20" as="geometry" />
        </mxCell>
        <mxCell id="ppUznr6c5s3xYXmo9qjN-83" value="" style="endArrow=none;html=1;fontSize=8;exitX=0.5;exitY=1;exitDx=0;exitDy=0;entryX=0.5;entryY=0;entryDx=0;entryDy=0;" edge="1" parent="1" source="ppUznr6c5s3xYXmo9qjN-70" target="ppUznr6c5s3xYXmo9qjN-81">
          <mxGeometry width="50" height="50" relative="1" as="geometry">
            <mxPoint x="292.08000000000004" y="530" as="sourcePoint" />
            <mxPoint x="243.5879752426101" y="571.5631640777627" as="targetPoint" />
          </mxGeometry>
        </mxCell>
        <mxCell id="ppUznr6c5s3xYXmo9qjN-84" value="" style="endArrow=none;html=1;fontSize=8;entryX=0.5;entryY=0;entryDx=0;entryDy=0;exitX=0.5;exitY=1;exitDx=0;exitDy=0;" edge="1" parent="1" source="ppUznr6c5s3xYXmo9qjN-70" target="ppUznr6c5s3xYXmo9qjN-82">
          <mxGeometry width="50" height="50" relative="1" as="geometry">
            <mxPoint x="277.08000000000004" y="520" as="sourcePoint" />
            <mxPoint x="275.4150000000001" y="580" as="targetPoint" />
          </mxGeometry>
        </mxCell>
        <mxCell id="ppUznr6c5s3xYXmo9qjN-85" value="FAKULTAS" style="rounded=0;whiteSpace=wrap;html=1;fillColor=#0050ef;strokeColor=#001DBC;fontColor=#ffffff;" vertex="1" parent="1">
          <mxGeometry x="633.3399999999999" y="390" width="120" height="60" as="geometry" />
        </mxCell>
        <mxCell id="ppUznr6c5s3xYXmo9qjN-88" value="&lt;font style=&quot;font-size: 5px&quot;&gt;Nomor Rumah&lt;/font&gt;" style="ellipse;whiteSpace=wrap;html=1;fontSize=5;fillColor=#f5f5f5;strokeColor=#666666;fontColor=#333333;" vertex="1" parent="1">
          <mxGeometry x="194.58" y="530" width="35" height="20" as="geometry" />
        </mxCell>
        <mxCell id="ppUznr6c5s3xYXmo9qjN-89" value="" style="endArrow=none;html=1;fontSize=8;entryX=0.5;entryY=0;entryDx=0;entryDy=0;exitX=0.5;exitY=1;exitDx=0;exitDy=0;" edge="1" parent="1" target="ppUznr6c5s3xYXmo9qjN-88">
          <mxGeometry width="50" height="50" relative="1" as="geometry">
            <mxPoint x="282.08000000000015" y="520.0000000000001" as="sourcePoint" />
            <mxPoint x="276.65999999999974" y="795" as="targetPoint" />
          </mxGeometry>
        </mxCell>
        <mxCell id="ppUznr6c5s3xYXmo9qjN-90" value="Kode Pos" style="ellipse;whiteSpace=wrap;html=1;fontSize=5;fillColor=#f5f5f5;strokeColor=#666666;fontColor=#333333;" vertex="1" parent="1">
          <mxGeometry x="327.0799999999999" y="550" width="36.67" height="20" as="geometry" />
        </mxCell>
        <mxCell id="ppUznr6c5s3xYXmo9qjN-91" value="Kelurahan" style="ellipse;whiteSpace=wrap;html=1;fontSize=5;fillColor=#f5f5f5;strokeColor=#666666;fontColor=#333333;" vertex="1" parent="1">
          <mxGeometry x="205.41" y="560" width="36.67" height="20" as="geometry" />
        </mxCell>
        <mxCell id="ppUznr6c5s3xYXmo9qjN-92" value="" style="endArrow=none;html=1;fontSize=8;exitX=0.5;exitY=1;exitDx=0;exitDy=0;" edge="1" parent="1" target="ppUznr6c5s3xYXmo9qjN-91">
          <mxGeometry width="50" height="50" relative="1" as="geometry">
            <mxPoint x="282.08000000000015" y="520.0000000000001" as="sourcePoint" />
            <mxPoint x="305.08000000000004" y="560" as="targetPoint" />
          </mxGeometry>
        </mxCell>
        <mxCell id="ppUznr6c5s3xYXmo9qjN-93" value="" style="endArrow=none;html=1;fontSize=8;exitX=0.5;exitY=1;exitDx=0;exitDy=0;entryX=0.5;entryY=0;entryDx=0;entryDy=0;" edge="1" parent="1" target="ppUznr6c5s3xYXmo9qjN-90">
          <mxGeometry width="50" height="50" relative="1" as="geometry">
            <mxPoint x="282.08000000000015" y="520.0000000000001" as="sourcePoint" />
            <mxPoint x="293.30068607312853" y="550.0029366453915" as="targetPoint" />
          </mxGeometry>
        </mxCell>
        <mxCell id="ppUznr6c5s3xYXmo9qjN-94" value="Kecamatan" style="ellipse;whiteSpace=wrap;html=1;fontSize=5;fillColor=#f5f5f5;strokeColor=#666666;fontColor=#333333;" vertex="1" parent="1">
          <mxGeometry x="247.08" y="570" width="36.67" height="20" as="geometry" />
        </mxCell>
        <mxCell id="ppUznr6c5s3xYXmo9qjN-95" value="Kabupaten" style="ellipse;whiteSpace=wrap;html=1;fontSize=5;fillColor=#f5f5f5;strokeColor=#666666;fontColor=#333333;" vertex="1" parent="1">
          <mxGeometry x="295.40999999999997" y="570" width="36.67" height="20" as="geometry" />
        </mxCell>
        <mxCell id="ppUznr6c5s3xYXmo9qjN-96" value="" style="endArrow=none;html=1;fontSize=8;exitX=0.5;exitY=1;exitDx=0;exitDy=0;entryX=0.5;entryY=0;entryDx=0;entryDy=0;" edge="1" parent="1" target="ppUznr6c5s3xYXmo9qjN-94">
          <mxGeometry width="50" height="50" relative="1" as="geometry">
            <mxPoint x="282.08000000000015" y="520.0000000000001" as="sourcePoint" />
            <mxPoint x="243.5879752426101" y="571.5631640777627" as="targetPoint" />
          </mxGeometry>
        </mxCell>
        <mxCell id="ppUznr6c5s3xYXmo9qjN-97" value="" style="endArrow=none;html=1;fontSize=8;entryX=0.5;entryY=0;entryDx=0;entryDy=0;exitX=0.5;exitY=1;exitDx=0;exitDy=0;" edge="1" parent="1" target="ppUznr6c5s3xYXmo9qjN-95">
          <mxGeometry width="50" height="50" relative="1" as="geometry">
            <mxPoint x="282.08000000000015" y="520.0000000000001" as="sourcePoint" />
            <mxPoint x="275.4150000000001" y="580" as="targetPoint" />
          </mxGeometry>
        </mxCell>
        <mxCell id="ppUznr6c5s3xYXmo9qjN-98" value="&lt;font style=&quot;font-size: 5px&quot;&gt;Nomor Rumah&lt;/font&gt;" style="ellipse;whiteSpace=wrap;html=1;fontSize=5;fillColor=#f5f5f5;strokeColor=#666666;fontColor=#333333;" vertex="1" parent="1">
          <mxGeometry x="598.34" y="460" width="35" height="20" as="geometry" />
        </mxCell>
        <mxCell id="ppUznr6c5s3xYXmo9qjN-99" value="" style="endArrow=none;html=1;fontSize=8;entryX=0.5;entryY=0;entryDx=0;entryDy=0;exitX=0.5;exitY=1;exitDx=0;exitDy=0;" edge="1" parent="1" target="ppUznr6c5s3xYXmo9qjN-98" source="ppUznr6c5s3xYXmo9qjN-85">
          <mxGeometry width="50" height="50" relative="1" as="geometry">
            <mxPoint x="685.8400000000001" y="450.0000000000001" as="sourcePoint" />
            <mxPoint x="680.4199999999997" y="725" as="targetPoint" />
          </mxGeometry>
        </mxCell>
        <mxCell id="ppUznr6c5s3xYXmo9qjN-100" value="Kode Pos" style="ellipse;whiteSpace=wrap;html=1;fontSize=5;fillColor=#f5f5f5;strokeColor=#666666;fontColor=#333333;" vertex="1" parent="1">
          <mxGeometry x="739.9999999999999" y="480" width="36.67" height="20" as="geometry" />
        </mxCell>
        <mxCell id="ppUznr6c5s3xYXmo9qjN-101" value="Kelurahan" style="ellipse;whiteSpace=wrap;html=1;fontSize=5;fillColor=#f5f5f5;strokeColor=#666666;fontColor=#333333;" vertex="1" parent="1">
          <mxGeometry x="609.17" y="490" width="36.67" height="20" as="geometry" />
        </mxCell>
        <mxCell id="ppUznr6c5s3xYXmo9qjN-102" value="" style="endArrow=none;html=1;fontSize=8;exitX=0.5;exitY=1;exitDx=0;exitDy=0;" edge="1" parent="1" target="ppUznr6c5s3xYXmo9qjN-101" source="ppUznr6c5s3xYXmo9qjN-85">
          <mxGeometry width="50" height="50" relative="1" as="geometry">
            <mxPoint x="685.8400000000001" y="450.0000000000001" as="sourcePoint" />
            <mxPoint x="708.84" y="490" as="targetPoint" />
          </mxGeometry>
        </mxCell>
        <mxCell id="ppUznr6c5s3xYXmo9qjN-103" value="" style="endArrow=none;html=1;fontSize=8;exitX=0.5;exitY=1;exitDx=0;exitDy=0;entryX=0.5;entryY=0;entryDx=0;entryDy=0;" edge="1" parent="1" target="ppUznr6c5s3xYXmo9qjN-100" source="ppUznr6c5s3xYXmo9qjN-85">
          <mxGeometry width="50" height="50" relative="1" as="geometry">
            <mxPoint x="685.8400000000001" y="450.0000000000001" as="sourcePoint" />
            <mxPoint x="697.0606860731285" y="480.0029366453915" as="targetPoint" />
          </mxGeometry>
        </mxCell>
        <mxCell id="ppUznr6c5s3xYXmo9qjN-104" value="Kecamatan" style="ellipse;whiteSpace=wrap;html=1;fontSize=5;fillColor=#f5f5f5;strokeColor=#666666;fontColor=#333333;" vertex="1" parent="1">
          <mxGeometry x="650.84" y="500" width="36.67" height="20" as="geometry" />
        </mxCell>
        <mxCell id="ppUznr6c5s3xYXmo9qjN-105" value="Kabupaten" style="ellipse;whiteSpace=wrap;html=1;fontSize=5;fillColor=#f5f5f5;strokeColor=#666666;fontColor=#333333;" vertex="1" parent="1">
          <mxGeometry x="699.17" y="500" width="36.67" height="20" as="geometry" />
        </mxCell>
        <mxCell id="ppUznr6c5s3xYXmo9qjN-106" value="" style="endArrow=none;html=1;fontSize=8;exitX=0.5;exitY=1;exitDx=0;exitDy=0;entryX=0.5;entryY=0;entryDx=0;entryDy=0;" edge="1" parent="1" target="ppUznr6c5s3xYXmo9qjN-104" source="ppUznr6c5s3xYXmo9qjN-85">
          <mxGeometry width="50" height="50" relative="1" as="geometry">
            <mxPoint x="685.8400000000001" y="450.0000000000001" as="sourcePoint" />
            <mxPoint x="647.3479752426101" y="501.56316407776274" as="targetPoint" />
          </mxGeometry>
        </mxCell>
        <mxCell id="ppUznr6c5s3xYXmo9qjN-107" value="" style="endArrow=none;html=1;fontSize=8;entryX=0.5;entryY=0;entryDx=0;entryDy=0;exitX=0.5;exitY=1;exitDx=0;exitDy=0;" edge="1" parent="1" target="ppUznr6c5s3xYXmo9qjN-105" source="ppUznr6c5s3xYXmo9qjN-85">
          <mxGeometry width="50" height="50" relative="1" as="geometry">
            <mxPoint x="685.8400000000001" y="450.0000000000001" as="sourcePoint" />
            <mxPoint x="679.1750000000001" y="510" as="targetPoint" />
          </mxGeometry>
        </mxCell>
      </root>
    </mxGraphModel>
  </diagram>
</mxfile>
